# xmcd
#
# Track frame offsets:
#	150
#	11525
#	22625
#	30635
#	46350
#	60030
#	69487
#	81125
#	91725
#	108237
#	120172
#
# Disc length: 1776
#
# Revision: 2
# Processed by: cddbd v1.5.1PL0 Copyright (c) Steve Scherf et al.
# Submitted via: DiscPlay 4.0.4
# Normalized: r1:DSETVAR1,TDELIM( - )
#
DISCID=6a06ee0b
DTITLE=Various Artist - The best of and the rest of Punk
DYEAR=1900
DGENRE=
TTITLE0=The stupidos - Retard picnic
TTITLE1=X ray spex - Identify
TTITLE2=The dickies - Eve of destruction
TTITLE3=The damned - Ballroom blitz
TTITLE4=Gaye bykers on acid - Space cadet
TTITLE5=Johnny thunders and the heartbreakers - Do you love me?
TTITLE6=Eddie and the hot rods - Out of this town
TTITLE7=Buzzcooks - No reply
TTITLE8=Sex gang children - The crack up
TTITLE9=Adverts - One chord wonders
TTITLE10=Splodgnessabounds - Dangerous
EXTD=
EXTT0=
EXTT1=
EXTT2=
EXTT3=
EXTT4=
EXTT5=
EXTT6=
EXTT7=
EXTT8=
EXTT9=
EXTT10=
PLAYORDER=
